<?xml version="1.0" standalone="no"?>
<!DOCTYPE svg PUBLIC "-//W3C//DTD SVG 20010904//EN"
 "http://www.w3.org/TR/2001/REC-SVG-20010904/DTD/svg10.dtd">
<svg version="1.0" xmlns="http://www.w3.org/2000/svg"
 width="646.000000pt" height="589.000000pt" viewBox="0 0 646.000000 589.000000"
 preserveAspectRatio="xMidYMid meet">
<metadata>
Created by potrace 1.16, written by Peter Selinger 2001-2019
</metadata>
<g transform="translate(0.000000,589.000000) scale(0.100000,-0.100000)"
fill="#000000" stroke="none">
<path d="M1580 4290 l0 -480 900 0 900 0 0 480 0 480 -900 0 -900 0 0 -480z"/>
<path d="M1585 3438 c-3 -7 -4 -222 -3 -478 l3 -465 1795 0 1795 0 0 475 0
475 -1793 3 c-1429 2 -1794 0 -1797 -10z"/>
<path d="M3380 1650 l0 -480 900 0 900 0 0 480 0 480 -900 0 -900 0 0 -480z"/>
</g>
</svg>
