<?xml version="1.0" standalone="no"?>
<!DOCTYPE svg PUBLIC "-//W3C//DTD SVG 20010904//EN"
 "http://www.w3.org/TR/2001/REC-SVG-20010904/DTD/svg10.dtd">
<svg version="1.0" xmlns="http://www.w3.org/2000/svg"
 width="647.000000pt" height="592.000000pt" viewBox="0 0 647.000000 592.000000"
 preserveAspectRatio="xMidYMid meet">
<metadata>
Created by potrace 1.16, written by Peter Selinger 2001-2019
</metadata>
<g transform="translate(0.000000,592.000000) scale(0.100000,-0.100000)"
fill="#000000" stroke="none">
<path d="M1290 4320 l0 -490 910 0 910 0 0 490 0 490 -910 0 -910 0 0 -490z
m1810 0 l0 -480 -900 0 -900 0 0 480 0 480 900 0 900 0 0 -480z"/>
<path d="M1290 3000 l0 -490 1810 0 1810 0 0 490 0 490 -1810 0 -1810 0 0
-490z m3610 0 l0 -480 -1800 0 -1800 0 0 480 0 480 1800 0 1800 0 0 -480z"/>
<path d="M3090 1680 l0 -490 910 0 910 0 0 490 0 490 -910 0 -910 0 0 -490z
m1810 0 l0 -480 -900 0 -900 0 0 480 0 480 900 0 900 0 0 -480z"/>
</g>
</svg>
